PathFileType	4	(X/Y/Z)	/Users/itak/Documents/Research/Walk-IL/dataset/trc/00446_00167.trc
DataRate	CameraRate	NumFrames	NumMarkers	Units	OrigDataRate	OrigDataStartFrame	OrigNumFrames
100.000000	100.000000	4	53	mm	100.000000	298	477
Frame#	Time	RPSI			LPSI			L3			STRN			T10			C7			CLAV			RBAK			LBAK			LSHO			LUPA			LAEL			LAOL			LWTS			LWPS			LFRA			LIFD			LHPS			LHTS			RSHO			RUPA			RAEL			RAOL			RWTS			RWPS			RFRA			RIFD			RHTS			RHPS			RBHD			LFHD			RFHD			LBHD			LHIP			RHIP			RASI			LASI			LKNE			LTHI			LANK			LTIP			LTOE			LMT1			LMT5			LHEE			RKNE			RTHI			RANK			RTIP			RTOE			RMT1			RMT5			RHEE			
		X1	Y1	Z1	X2	Y2	Z2	X3	Y3	Z3	X4	Y4	Z4	X5	Y5	Z5	X6	Y6	Z6	X7	Y7	Z7	X8	Y8	Z8	X9	Y9	Z9	X10	Y10	Z10	X11	Y11	Z11	X12	Y12	Z12	X13	Y13	Z13	X14	Y14	Z14	X15	Y15	Z15	X16	Y16	Z16	X17	Y17	Z17	X18	Y18	Z18	X19	Y19	Z19	X20	Y20	Z20	X21	Y21	Z21	X22	Y22	Z22	X23	Y23	Z23	X24	Y24	Z24	X25	Y25	Z25	X26	Y26	Z26	X27	Y27	Z27	X28	Y28	Z28	X29	Y29	Z29	X30	Y30	Z30	X31	Y31	Z31	X32	Y32	Z32	X33	Y33	Z33	X34	Y34	Z34	X35	Y35	Z35	X36	Y36	Z36	X37	Y37	Z37	X38	Y38	Z38	X39	Y39	Z39	X40	Y40	Z40	X41	Y41	Z41	X42	Y42	Z42	X43	Y43	Z43	X44	Y44	Z44	X45	Y45	Z45	X46	Y46	Z46	X47	Y47	Z47	X48	Y48	Z48	X49	Y49	Z49	X50	Y50	Z50	X51	Y51	Z51	X52	Y52	Z52	X53	Y53	Z53	

299	2.98	578.4019165039062	939.4892578125	648.9965209960938	668.800048828125	939.1016845703125	540.4672241210938	607.645263671875	1048.324584960938	622.3089599609375	837.2688598632812	1268.061279296875	760.9594116210938	587.088134765625	1171.954956054688	622.75830078125	614.0213012695312	1441.420532226562	675.8198852539062	794.96142578125	1377.782470703125	738.406005859375	525.6876220703125	1310.26318359375	727.3256225585938	632.6255493164062	1399.134765625	579.95947265625	754.371337890625	1439.947509765625	546.9263916015625	767.469970703125	1357.421264648438	427.5324401855469	745.5104370117188	1160.26953125	337.6772155761719	646.7813110351562	1165.788208007812	369.4406433105469	748.8123168945312	944.1986083984375	357.400146484375	724.5111694335938	943.8848876953125	286.7491760253906	747.7570190429688	1072.443115234375	313.3109741210938	715.22705078125	783.3673095703125	345.2683410644531	716.6016845703125	859.8934326171875	280.0300598144531	754.8939819335938	856.6765747070312	342.1675109863281	604.73779296875	1407.120239257812	845.3470458984375	564.226806640625	1341.092407226562	905.9918212890625	599.361572265625	1073.310668945312	967.8191528320312	575.0314331054688	1024.125610351562	923.581298828125	822.1168212890625	1039.667602539062	943.966064453125	790.50830078125	974.38232421875	993.5420532226562	645.6104736328125	1038.778076171875	978.742431640625	951.089111328125	944.8236694335938	950.8147583007812	911.3880004882812	991.578369140625	960.5796508789062	871.7224731445312	936.0673828125	994.5748291015625	623.6266479492188	1638.1689453125	766.705322265625	816.6617431640625	1668.762084960938	700.0137329101562	749.2083740234375	1675.0283203125	812.2465209960938	701.77001953125	1631.798095703125	606.447265625	866.5342407226562	875.9609985351562	547.968994140625	592.99853515625	851.578125	840.678955078125	704.236328125	909.427001953125	851.9810180664062	868.1400756835938	922.2073974609375	663.9874267578125	1070.370239257812	528.2501831054688	686.0826416015625	1032.341064453125	686.0791015625	650.2866821289062	957.7310791015625	103.6465454101562	631.2637939453125	1056.088500976562	368.1903381347656	660.6322631835938	1112.932861328125	77.52630615234375	784.9525146484375	1043.208374023438	82.57022857666016	786.2000122070312	1085.604858398438	63.12697601318359	686.5890502929688	892.4624633789062	129.1494445800781	654.9632568359375	714.7306518554688	475.4296264648438	895.3956909179688	651.8839111328125	728.8140258789062	891.9944458007812	519.0125732421875	105.3360366821289	743.907470703125	659.0994262695312	340.2950134277344	867.5342407226562	711.4503784179688	35.93656158447266	799.6815795898438	685.085693359375	59.31219863891602	744.379638671875	606.676513671875	42.88734817504883	815.7135620117188	493.5243530273438	140.0548858642578	674.7122192382812	
300	2.99	596.580322265625	943.3666381835938	656.4638061523438	687.3690185546875	943.6541137695312	549.0958251953125	625.4522094726562	1052.2822265625	629.46728515625	853.4102783203125	1272.477172851562	768.0007934570312	604.005126953125	1175.462890625	629.847900390625	630.1478881835938	1444.63818359375	682.5531616210938	810.7964477539062	1381.810180664062	744.7982177734375	541.9995727539062	1313.755004882812	734.1472778320312	649.006103515625	1402.255615234375	587.250244140625	770.254638671875	1443.398071289062	554.4218139648438	782.2230224609375	1364.015625	433.7581787109375	756.1467895507812	1167.664428710938	342.171875	658.2122802734375	1173.886962890625	375.8394470214844	758.4407348632812	951.0883178710938	361.584228515625	733.1129760742188	950.6964111328125	291.2815856933594	757.5716552734375	1079.835083007812	317.4140319824219	723.1123657226562	790.3890380859375	351.4617309570312	724.3567504882812	866.4054565429688	285.3128967285156	763.56298828125	863.357177734375	346.9436645507812	620.7529907226562	1411.26904296875	851.3544311523438	580.5524291992188	1345.893188476562	912.6812133789062	616.9321899414062	1080.788940429688	976.1373291015625	593.9523315429688	1029.298950195312	933.0429077148438	840.8754272460938	1059.127807617188	947.3642578125	814.0288696289062	992.9653930664062	998.6922607421875	665.1653442382812	1049.030029296875	986.1883544921875	974.9690551757812	971.3621215820312	952.0089111328125	933.1168212890625	1016.133605957031	962.4989624023438	897.3464965820312	959.1752319335938	998.3101196289062	640.7242431640625	1640.971313476562	772.4657592773438	833.8145141601562	1671.163940429688	705.6637573242188	766.3380126953125	1677.893676757812	817.88818359375	718.9113159179688	1633.922241210938	612.2450561523438	884.0974731445312	880.1196899414062	557.5550537109375	608.838134765625	855.4002075195312	848.0274047851562	720.1600341796875	913.2327880859375	860.2218627929688	885.9371948242188	926.3121337890625	673.58203125	1086.131958007812	530.170166015625	696.54931640625	1046.8193359375	688.0131225585938	660.1270141601562	1009.5205078125	95.46987152099609	662.5570678710938	1085.775756835938	369.2285766601562	678.2696533203125	1163.795776367188	83.59830474853516	817.816162109375	1094.309692382812	85.98856353759766	818.7168579101562	1138.002075195312	61.62263488769531	720.8381958007812	943.3135375976562	120.2680130004883	684.2164916992188	726.981689453125	478.4928894042969	905.4498901367188	666.2396240234375	732.280029296875	899.7581176757812	523.3904418945312	112.783088684082	749.4720458984375	668.6744995117188	344.7879638671875	876.5579833984375	712.7191162109375	35.213623046875	800.8926391601562	687.421875	60.946533203125	747.041748046875	609.0686645507812	44.26029586791992	817.9696655273438	499.2262573242188	150.8208923339844	681.6349487304688	
301	3	614.6660766601562	946.389892578125	664.3384399414062	705.767578125	947.1365966796875	558.015869140625	643.3148803710938	1055.363891601562	636.778564453125	869.6358642578125	1276.103881835938	775.0513305664062	620.98779296875	1178.004272460938	636.795166015625	646.2945556640625	1446.955078125	689.1307373046875	826.6442260742188	1385.029052734375	751.199462890625	558.3497314453125	1316.319458007812	740.692626953125	665.4482421875	1404.49169921875	594.3759765625	786.2632446289062	1445.963989257812	561.8389282226562	797.282958984375	1369.528198242188	440.1141662597656	767.71826171875	1173.916381835938	346.9339599609375	670.5072631835938	1180.67041015625	382.3242492675781	769.1829223632812	956.7667846679688	366.0341796875	742.9888916015625	956.3125	296.0018920898438	768.4603881835938	1086.083740234375	321.7735900878906	731.9659423828125	796.2064208984375	357.7817687988281	733.3442993164062	871.7080078125	290.7810363769531	773.2548217773438	868.7548217773438	352.028564453125	636.6021728515625	1414.47705078125	857.21142578125	596.607177734375	1349.732177734375	919.1481323242188	633.6384887695312	1087.127685546875	984.3161010742188	612.1466674804688	1033.616455078125	942.094970703125	858.02978515625	1076.620849609375	951.1907348632812	835.550537109375	1009.819702148438	1003.861755371094	683.5325317382812	1058.044677734375	993.5266723632812	996.3729248046875	995.6553344726562	953.7954711914062	952.6675415039062	1038.47119140625	965.0443725585938	920.5647583007812	980.3550415039062	1002.251220703125	657.6936645507812	1642.969970703125	778.1221313476562	850.8148193359375	1672.764404296875	711.1839599609375	783.3565673828125	1679.970336914062	823.4153442382812	735.878173828125	1635.2294921875	617.9356079101562	901.4642944335938	882.760009765625	567.1593627929688	625.0134887695312	858.6397094726562	855.8135986328125	736.4151000976562	916.4136962890625	868.5491333007812	903.9871215820312	929.3638305664062	683.0653686523438	1101.068481445312	530.4038696289062	706.5540161132812	1060.666259765625	687.7120361328125	669.4418334960938	1059.845581054688	89.8717041015625	692.791259765625	1114.158325195312	370.2089538574219	695.1181640625	1212.496948242188	91.08618927001953	849.3677978515625	1143.231567382812	91.36956787109375	849.8200073242188	1188.469848632812	62.18171691894531	754.00439453125	992.7349853515625	113.9221038818359	712.3562622070312	739.6137084960938	481.0104370117188	915.7203979492188	680.9110107421875	735.1845092773438	907.9574584960938	528.5162963867188	120.2234878540039	755.3318481445312	678.7887573242188	348.7411804199219	885.7733154296875	714.168212890625	34.36067199707031	802.0548706054688	689.9681396484375	62.37391662597656	749.6659545898438	611.7952880859375	45.80609512329102	820.4832153320312	505.7982482910156	161.2584533691406	688.8739624023438	
302	3.01	632.68603515625	948.4517211914062	672.55029296875	724.0745849609375	949.37255859375	567.1404418945312	661.24755859375	1057.427368164062	644.2638549804688	885.9498291015625	1278.831298828125	782.1304931640625	638.0787963867188	1179.462768554688	643.634765625	662.4796142578125	1448.282958984375	695.5185546875	842.5310668945312	1387.345947265625	757.62353515625	574.7366943359375	1317.864624023438	746.953369140625	681.9547729492188	1405.721557617188	601.3237915039062	802.3949584960938	1447.533203125	569.119140625	812.631591796875	1373.759643554688	446.5660400390625	780.3406372070312	1178.814208984375	351.9175109863281	683.7403564453125	1185.953369140625	388.7495727539062	781.079345703125	961.0870361328125	370.7187194824219	754.2805786132812	960.5830078125	300.8527221679688	780.546142578125	1090.984741210938	326.3623962402344	741.848388671875	800.7123413085938	364.1937866210938	743.7125244140625	875.6544799804688	296.3706665039062	784.0447387695312	872.7507934570312	357.3987731933594	652.2850952148438	1416.674926757812	862.9088745117188	612.3575439453125	1352.531860351562	925.3546752929688	649.5115966796875	1092.171264648438	992.3496704101562	629.5528564453125	1036.987182617188	950.7542724609375	873.7608032226562	1091.913940429688	955.55029296875	855.2325439453125	1024.600463867188	1009.163391113281	700.783447265625	1065.622192382812	1000.812622070312	1015.642456054688	1017.456970214844	956.302978515625	970.3194580078125	1058.353149414062	968.3732299804688	941.6249389648438	999.2778930664062	1006.537109375	674.5147705078125	1644.127807617188	783.6885986328125	867.6557006835938	1673.5166015625	716.6173706054688	800.2455444335938	1681.20361328125	828.8612670898438	752.6715087890625	1635.703491210938	623.541015625	918.7900390625	883.790283203125	576.8368530273438	641.505126953125	861.1942138671875	864.0216674804688	752.9937133789062	918.8616943359375	876.9685668945312	922.2674560546875	931.2294921875	692.525634765625	1115.534301757812	529.1138305664062	716.287353515625	1074.195922851562	685.326171875	678.3660888671875	1107.72509765625	86.61688995361328	721.4977416992188	1141.099365234375	371.0720520019531	711.1629638671875	1258.36767578125	99.47647857666016	879.18798828125	1189.250122070312	98.19802093505859	879.0931396484375	1236.139770507812	64.41685485839844	785.5262451171875	1039.741577148438	109.8733291625977	739.0211181640625	752.6881103515625	482.8920593261719	926.16650390625	695.9884643554688	737.4462890625	916.586181640625	534.4475708007812	127.6314849853516	761.4150390625	689.4711303710938	352.0718383789062	895.1087646484375	715.7216186523438	33.38925552368164	803.0479736328125	692.6861572265625	63.51816940307617	752.142822265625	614.830322265625	47.48920822143555	823.1746826171875	513.33740234375	171.3605651855469	696.3353271484375	
